#N canvas 0 0 1427 980 12;
#X obj 560 757 netsend -u -b;
#X msg 318 624 connect 127.0.0.1 8001;
#X obj 543 98 comport;
#X msg 487 19 devices;
#X msg 698 20 close;
#X msg 550 19 baud 115200 \, open 4;
#X obj 543 143 pdchoco/slip_parse;
#X obj 543 179 oscparse;
#X obj 543 220 list trim;
#X obj 546 332 tgl 19 0 empty empty empty 0 -10 0 12 #fcfcfc #000000 #000000 0 1;
#X text 372 597 connexion;
#X obj 1216 622 pdchoco/scope 0 127;
#X msg 715 668 disconnect;
#X obj 543 286 route lumiere angle;
#X obj 619 359 tgl 19 0 empty empty empty 0 -10 0 12 #fcfcfc #000000 #000000 0 1;
#X obj 540 466 oscformat -f i lumiere;
#X obj 725 476 oscformat -f i angle;
#X connect 1 0 0 0;
#X connect 2 0 6 0;
#X connect 3 0 2 0;
#X connect 4 0 2 0;
#X connect 5 0 2 0;
#X connect 6 0 7 0;
#X connect 7 0 8 0;
#X connect 8 0 13 0;
#X connect 9 0 15 0;
#X connect 12 0 0 0;
#X connect 13 0 9 0;
#X connect 13 1 14 0;
#X connect 14 0 16 0;
#X connect 15 0 0 0;
#X connect 16 0 0 0;
